#!OML:ASF F:\VICON\USERDATA\INSTALL\rory3\rory3.ASF
:FULLY-SPECIFIED
:DEGREES
120
root 1.35572 17.6964 0.0575357 16.2524 1.44713 -2.67872
lowerback -10.7137 -1.21358 6.09525
upperback -6.76614 -2.13835 1.33797
thorax -1.25046 -1.2396 -2.22542
lowerneck -15.6236 -2.29194 -6.92694
upperneck 25.0695 -2.24653 3.23819
head 10.7753 -1.30465 2.02644
rclavicle -3.15571e-015 -1.51076e-014
rhumerus -42.7358 -1.92652 -77.7787
rradius 36.5602
rwrist 3.98748
rhand -18.2544 -50.2078
rfingers 7.12502
rthumb 8.02485 -80.0355
lclavicle -3.15571e-015 -1.51076e-014
lhumerus -38.4391 4.21022 81.973
lradius 31.6166
lwrist 15.9027
lhand -32.0352 -29.7761
lfingers 7.12502
lthumb -5.28275 0.138011
rfemur -8.64424 17.689 11.8366
rtibia 1.95543
rfoot -4.53334 -34.7526
rtoes 2.29104
lfemur -18.7191 -10.749 -8.5279
ltibia 14.175
lfoot -7.50802 22.4595
ltoes -0.319082
121
root 1.36064 17.6957 0.0550812 16.2231 1.30262 -2.6739
lowerback -10.4864 -1.20537 6.01607
upperback -6.83748 -2.10096 1.34663
thorax -1.44194 -1.22496 -2.16016
lowerneck -15.455 -2.29554 -6.90198
upperneck 25.0239 -2.26067 3.19943
head 10.7256 -1.31437 2.00637
rclavicle 3.61912e-014 -1.64991e-014
rhumerus -42.8573 -1.78951 -77.9065
rradius 36.6966
rwrist 3.9774
rhand -18.2236 -50.0395
rfingers 7.12502
rthumb 8.05454 -79.866
lclavicle 3.61912e-014 -1.64991e-014
lhumerus -38.495 4.04238 82.0894
lradius 31.5224
lwrist 15.9521
lhand -31.94 -30.1637
lfingers 7.12502
lthumb -5.19082 -0.247236
rfemur -8.5263 17.8104 11.7751
rtibia 1.6751
rfoot -4.27269 -34.7107
rtoes 1.58734
lfemur -18.7217 -10.7417 -8.57746
ltibia 14.279
lfoot -7.63199 22.5709
ltoes -0.155544
122
root 1.36364 17.6952 0.0562216 16.1413 1.20706 -2.77129
lowerback -10.2643 -1.20578 6.03289
upperback -6.87488 -2.08479 1.39094
thorax -1.6 -1.2215 -2.11428
lowerneck -15.4378 -2.21573 -6.78047
upperneck 25.0625 -2.14967 3.07915
head 10.727 -1.26728 1.95821
rclavicle 8.03835e-015 -7.95139e-015
rhumerus -42.9379 -1.62522 -78.0468
rradius 36.7447
rwrist 3.81292
rhand -18.4179 -49.9459
rfingers 7.12502
rthumb 7.86702 -79.7795
lclavicle 8.03835e-015 -7.95139e-015
lhumerus -38.5374 3.95753 82.1712
lradius 31.4747
lwrist 15.8411
lhand -31.8562 -30.5117
lfingers 7.12502
lthumb -5.10988 -0.59328
rfemur -8.34293 17.9242 11.8773
rtibia 1.44962
rfoot -4.35752 -34.6672
rtoes 1.7551
lfemur -18.6564 -10.6043 -8.53379
ltibia 14.3557
lfoot -7.62908 22.5344
ltoes -0.550053
123
root 1.36658 17.6951 0.0467687 16.1366 1.1835 -2.83728
lowerback -10.0158 -1.24822 6.0119
upperback -6.95014 -2.11744 1.46888
thorax -1.81327 -1.24268 -2.01446
lowerneck -15.4181 -2.0787 -6.7328
upperneck 25.0116 -1.96332 3.05986
head 10.6925 -1.17925 1.96857
rclavicle -1.2424e-014 3.18055e-014
rhumerus -42.9618 -1.38372 -78.1695
rradius 36.7362
rwrist 3.42899
rhand -18.7378 -49.6893
rfingers 7.12502
rthumb 7.55821 -79.5343
lclavicle -1.2424e-014 3.18055e-014
lhumerus -38.6282 3.99488 82.2581
lradius 31.6198
lwrist 15.5641
lhand -32.0295 -29.7121
lfingers 7.12502
lthumb -5.27725 0.202207
rfemur -7.57981 17.859 11.9816
rtibia -2.70347e-014
rfoot -3.81049 -34.5324
rtoes 2.75055
lfemur -18.7429 -10.4375 -8.48464
ltibia 14.4322
lfoot -7.61321 22.393
ltoes -0.705321
124
root 1.3837 17.6961 0.0422591 16.1808 1.30196 -2.65524
lowerback -10.0138 -1.3371 5.95516
upperback -6.93439 -2.23164 1.44478
thorax -1.80496 -1.29804 -2.01676
lowerneck -15.2785 -1.85977 -6.71
upperneck 24.7652 -1.69324 3.16331
head 10.5587 -1.03832 2.03675
rclavicle -6.74625e-015 -4.77083e-015
rhumerus -42.8753 -1.09457 -78.3478
rradius 36.8756
rwrist 3.1494
rhand -18.9171 -49.4206
rfingers 7.12502
rthumb 7.38515 -79.2717
lclavicle -6.74625e-015 -4.77083e-015
lhumerus -38.5315 4.05963 82.3419
lradius 31.7632
lwrist 15.2893
lhand -32.1322 -28.6446
lfingers 7.12502
lthumb -5.37633 1.26716
rfemur -7.58887 17.6778 11.7511
rtibia -2.06736e-014
rfoot -3.72918 -34.569
rtoes 2.6461
lfemur -18.8733 -10.3371 -8.74275
ltibia 14.507
lfoot -7.72003 22.1106
ltoes -0.478061
125
root 1.41067 17.6978 0.0557606 16.1962 1.49021 -2.52285
lowerback -10.2665 -1.38171 6.10089
upperback -6.82729 -2.3257 1.37287
thorax -1.57269 -1.34326 -2.19109
lowerneck -14.9453 -1.63401 -6.58936
upperneck 24.3583 -1.42221 3.15633
head 10.3278 -0.899704 2.04587
rclavicle -3.08489e-014 -7.95139e-015
rhumerus -42.7999 -0.943892 -78.4765
rradius 37.144
rwrist 3.31888
rhand -18.2514 -50.263
rfingers 7.12502
rthumb 8.02767 -80.0905
lclavicle -3.08489e-014 -7.95139e-015
lhumerus -38.2388 4.01211 82.4563
lradius 31.6474
lwrist 15.0857
lhand -32.187 -28.1667
lfingers 7.12502
lthumb -5.42929 1.74371
rfemur -7.45303 17.4323 11.5992
rtibia 2.38542e-014
rfoot -3.62853 -34.5761
rtoes 1.81778
lfemur -18.8533 -10.2738 -9.00712
ltibia 14.5099
lfoot -7.82043 21.8247
ltoes -0.287366
126
root 1.42933 17.6977 0.0651871 16.2634 1.57116 -2.37919
lowerback -10.4828 -1.39744 6.08971
upperback -6.75881 -2.36485 1.32038
thorax -1.38774 -1.35718 -2.25195
lowerneck -14.9921 -1.65077 -6.47283
upperneck 24.2307 -1.42463 2.97892
head 10.289 -0.90879 1.96089
rclavicle 1.67973e-014 -8.34896e-015
rhumerus -42.6759 -0.862912 -78.5441
rradius 37.387
rwrist 3.73239
rhand -16.9864 -51.8418
rfingers 7.12502
rthumb 9.24848 -81.619
lclavicle 1.67973e-014 -8.34896e-015
lhumerus -37.9388 3.98093 82.5861
lradius 31.4201
lwrist 14.903
lhand -32.3735 -27.8199
lfingers 7.12502
lthumb -5.60937 2.08584
rfemur -7.43934 17.2878 11.399
rtibia -4.77083e-015
rfoot -3.75661 -34.597
rtoes 1.80711
lfemur -18.9152 -10.3027 -9.22636
ltibia 14.4989
lfoot -7.75399 21.7617
ltoes -0.450141
127
root 1.44087 17.6965 0.071427 16.3383 1.55211 -2.14238
lowerback -10.7105 -1.41742 5.84654
upperback -6.61604 -2.39374 1.28046
thorax -1.10461 -1.35453 -2.17242
lowerneck -15.7655 -1.84392 -6.40515
upperneck 24.5235 -1.61531 2.79738
head 10.5548 -1.01071 1.86047
rclavicle 1.7754e-014 -1.23246e-014
rhumerus -42.4227 -0.670727 -78.6728
rradius 37.722
rwrist 3.62485
rhand -16.3439 -52.9562
rfingers 7.12502
rthumb 9.86837 -82.7049
lclavicle 1.7754e-014 -1.23246e-014
lhumerus -37.544 3.98648 82.7506
lradius 31.2108
lwrist 14.8707
lhand -32.4772 -28.0553
lfingers 7.12502
lthumb -5.70943 1.84773
rfemur -7.47969 17.2178 11.0844
rtibia 2.38542e-014
rfoot -3.87523 -34.6338
rtoes 1.51958
lfemur -19.0294 -10.3343 -9.52737
ltibia 14.5547
lfoot -7.64827 21.7767
ltoes -0.706001
128
root 1.45188 17.6967 0.0790338 16.3638 1.50879 -2.10683
lowerback -10.8575 -1.39124 5.78488
upperback -6.47165 -2.3704 1.29268
thorax -0.867075 -1.33166 -2.13234
lowerneck -16.1561 -1.84841 -6.38761
upperneck 24.585 -1.59904 2.79992
head 10.6521 -0.999354 1.86051
rclavicle -1.15171e-014 -3.57812e-015
rhumerus -42.3164 -0.307859 -78.8498
rradius 37.8896
rwrist 3.47917
rhand -16.7921 -52.4823
rfingers 7.12502
rthumb 9.43597 -82.2511
lclavicle -1.15171e-014 -3.57812e-015
lhumerus -37.1744 3.8276 82.9893
lradius 30.9586
lwrist 14.9804
lhand -32.4109 -28.766
lfingers 7.12502
lthumb -5.64551 1.1388
rfemur -7.48771 17.237 10.9937
rtibia 1.74931e-014
rfoot -3.81589 -34.6449
rtoes 0.870066
lfemur -19.0402 -10.3637 -9.6173
ltibia 14.6175
lfoot -7.73405 21.8238
ltoes -0.42094
129
root 1.46083 17.6969 0.0778351 16.3607 1.60863 -2.22427
lowerback -10.6978 -1.37534 5.90758
upperback -6.53449 -2.3457 1.33065
thorax -1.02271 -1.3273 -2.15181
lowerneck -15.3544 -1.56988 -6.48503
upperneck 24.0624 -1.28727 3.01761
head 10.2903 -0.836639 1.99288
rclavicle -2.78299e-015 -3.97569e-015
rhumerus -42.5406 0.197775 -79.1073
rradius 38.044
rwrist 2.91375
rhand -17.4165 -51.9708
rfingers 7.12502
rthumb 8.83342 -81.7659
lclavicle -2.78299e-015 -3.97569e-015
lhumerus -37.2001 3.45855 83.2569
lradius 30.8662
lwrist 15.1594
lhand -32.3677 -29.4817
lfingers 7.12502
lthumb -5.60376 0.424188
rfemur -7.46916 17.172 11.124
rtibia -6.36111e-015
rfoot -3.88182 -34.6415
rtoes 0.919326
lfemur -19.093 -10.3542 -9.49978
ltibia 14.6835
lfoot -7.79316 21.7515
ltoes -0.446526
130
root 1.46649 17.6956 0.0761022 16.3545 1.72493 -2.33929
lowerback -10.5451 -1.39175 5.99962
upperback -6.61531 -2.36041 1.38272
thorax -1.19453 -1.34248 -2.14278
lowerneck -15.907 -1.8913 -6.56966
upperneck 24.5636 -1.6738 2.97319
head 10.6031 -1.03101 1.94366
rclavicle -2.81529e-014 6.36111e-015
rhumerus -42.6887 0.574194 -79.3202
rradius 37.8595
rwrist 2.4064
rhand -18.4467 -50.3502
rfingers 7.12502
rthumb 7.83917 -80.1849
lclavicle -2.81529e-014 6.36111e-015
lhumerus -37.3461 3.17457 83.4726
lradius 30.9781
lwrist 15.2216
lhand -32.2821 -30.1087
lfingers 7.12502
lthumb -5.52106 -0.200634
rfemur -7.43851 17.092 11.2717
rtibia 2.06736e-014
rfoot -3.98023 -34.6044
rtoes 1.23056
lfemur -19.1785 -10.2434 -9.38312
ltibia 14.746
lfoot -7.76285 21.5945
ltoes -0.714937
131
root 1.47071 17.694 0.0807462 16.3294 1.6526 -2.42871
lowerback -10.6033 -1.3716 5.9938
upperback -6.52514 -2.34183 1.43341
thorax -1.06379 -1.32668 -2.08979
lowerneck -16.1037 -1.9419 -6.50295
upperneck 24.605 -1.70211 2.79637
head 10.6567 -1.05836 1.86461
rclavicle 1.10636e-014 -2.22639e-014
rhumerus -42.4728 0.682455 -79.4295
rradius 37.5741
rwrist 2.55104
rhand -18.732 -50.0684
rfingers 7.12502
rthumb 7.56387 -79.9131
lclavicle 1.10636e-014 -2.22639e-014
lhumerus -37.1703 3.01644 83.6491
lradius 31.0497
lwrist 15.102
lhand -32.0019 -30.4534
lfingers 7.12502
lthumb -5.25059 -0.538412
rfemur -7.42295 17.1874 11.3366
rtibia 1.90833e-014
rfoot -4.12061 -34.5614
rtoes 2.36375
lfemur -19.1515 -10.1613 -9.31624
ltibia 14.75
lfoot -7.84694 21.5736
ltoes 0.133411
